<svg width="40" height="40" viewBox="0 0 40 40" fill="none" xmlns="http://www.w3.org/2000/svg">
<path d="M35 8.75H5C4.30964 8.75 3.75 9.30964 3.75 10V13.75C3.75 14.4404 4.30964 15 5 15H35C35.6904 15 36.25 14.4404 36.25 13.75V10C36.25 9.30964 35.6904 8.75 35 8.75Z" stroke="#2F353B" stroke-width="3.5" stroke-linecap="round" stroke-linejoin="round"/>
<path d="M33.75 15V30C33.75 30.3315 33.6183 30.6495 33.3839 30.8839C33.1495 31.1183 32.8315 31.25 32.5 31.25H7.5C7.16848 31.25 6.85054 31.1183 6.61612 30.8839C6.3817 30.6495 6.25 30.3315 6.25 30V15" stroke="#2F353B" stroke-width="3.5" stroke-linecap="round" stroke-linejoin="round"/>
<path d="M16.25 21.25H23.75" stroke="#2F353B" stroke-width="3.5" stroke-linecap="round" stroke-linejoin="round"/>
</svg>
