<svg width="48" height="48" viewBox="0 0 48 48" fill="none" xmlns="http://www.w3.org/2000/svg">
<path d="M15 31.5H9C8.17157 31.5 7.5 32.1716 7.5 33V39C7.5 39.8284 8.17157 40.5 9 40.5H15C15.8284 40.5 16.5 39.8284 16.5 39V33C16.5 32.1716 15.8284 31.5 15 31.5Z" stroke="#2F353B" stroke-width="4" stroke-linecap="round" stroke-linejoin="round"/>
<path d="M12 31.5V22.5" stroke="#2F353B" stroke-width="4" stroke-linecap="round" stroke-linejoin="round"/>
<path d="M9 7.5L39 40.5" stroke="#2F353B" stroke-width="4" stroke-linecap="round" stroke-linejoin="round"/>
<path d="M4.5 22.5H22.6369" stroke="#2F353B" stroke-width="4" stroke-linecap="round" stroke-linejoin="round"/>
<path d="M19.5 7.90125V7.5C19.5 7.10218 19.658 6.72064 19.9393 6.43934C20.2206 6.15804 20.6022 6 21 6H27C27.3978 6 27.7794 6.15804 28.0607 6.43934C28.342 6.72064 28.5 7.10218 28.5 7.5V13.5C28.5 13.8978 28.342 14.2794 28.0607 14.5607C27.7794 14.842 27.3978 15 27 15H25.9538" stroke="#2F353B" stroke-width="4" stroke-linecap="round" stroke-linejoin="round"/>
<path d="M32.7731 22.5H43.4999" stroke="#2F353B" stroke-width="4" stroke-linecap="round" stroke-linejoin="round"/>
<path d="M36 22.5V26.0513" stroke="#2F353B" stroke-width="4" stroke-linecap="round" stroke-linejoin="round"/>
</svg>
