<svg width="48" height="48" viewBox="0 0 48 48" fill="none" xmlns="http://www.w3.org/2000/svg">
<path d="M27 6H21C20.1716 6 19.5 6.67157 19.5 7.5V13.5C19.5 14.3284 20.1716 15 21 15H27C27.8284 15 28.5 14.3284 28.5 13.5V7.5C28.5 6.67157 27.8284 6 27 6Z" stroke="#2F353B" stroke-width="4" stroke-linecap="round" stroke-linejoin="round"/>
<path d="M15 31.5H9C8.17157 31.5 7.5 32.1716 7.5 33V39C7.5 39.8284 8.17157 40.5 9 40.5H15C15.8284 40.5 16.5 39.8284 16.5 39V33C16.5 32.1716 15.8284 31.5 15 31.5Z" stroke="#2F353B" stroke-width="4" stroke-linecap="round" stroke-linejoin="round"/>
<path d="M24 15V22.5" stroke="#2F353B" stroke-width="4" stroke-linecap="round" stroke-linejoin="round"/>
<path d="M12 31.5V22.5" stroke="#2F353B" stroke-width="4" stroke-linecap="round" stroke-linejoin="round"/>
<path d="M36 26.25V22.5" stroke="#2F353B" stroke-width="4" stroke-linecap="round" stroke-linejoin="round"/>
<path d="M4.5 22.5H43.5" stroke="#2F353B" stroke-width="4" stroke-linecap="round" stroke-linejoin="round"/>
<path d="M31.5 31.5L40.5 40.5" stroke="#2F353B" stroke-width="4" stroke-linecap="round" stroke-linejoin="round"/>
<path d="M40.5 31.5L31.5 40.5" stroke="#2F353B" stroke-width="4" stroke-linecap="round" stroke-linejoin="round"/>
</svg>
