<svg width="48" height="48" viewBox="0 0 48 48" fill="none" xmlns="http://www.w3.org/2000/svg">
<path d="M39 31.5H9C8.17157 31.5 7.5 32.1716 7.5 33V37.5C7.5 38.3284 8.17157 39 9 39H39C39.8284 39 40.5 38.3284 40.5 37.5V33C40.5 32.1716 39.8284 31.5 39 31.5Z" stroke="#2F353B" stroke-width="4" stroke-linecap="round" stroke-linejoin="round"/>
<path d="M39 17.25H9C8.17157 17.25 7.5 17.9216 7.5 18.75V23.25C7.5 24.0784 8.17157 24.75 9 24.75H39C39.8284 24.75 40.5 24.0784 40.5 23.25V18.75C40.5 17.9216 39.8284 17.25 39 17.25Z" stroke="#2F353B" stroke-width="4" stroke-linecap="round" stroke-linejoin="round"/>
<path d="M20.25 6.75H27.75" stroke="#2F353B" stroke-width="4" stroke-linecap="round" stroke-linejoin="round"/>
<path d="M24 3V10.5" stroke="#2F353B" stroke-width="4" stroke-linecap="round" stroke-linejoin="round"/>
</svg>
